<svg xmlns="http://www.w3.org/2000/svg" viewBox="0 0 316 316" width="695.2" height="695.2" role="img"><rect width="100%" height="100%" fill="#fff"/><g transform="translate(0,0)"><rect x="1.5" y="1.5" width="97" height="97" fill="#fff" stroke="#111" stroke-width="3"/><g stroke-width="3.5" stroke-linejoin="round"><circle cx="50" cy="22" r="9" fill="#111" stroke="#111"/></g></g><g transform="translate(108,0)"><rect x="1.5" y="1.5" width="97" height="97" fill="#fff" stroke="#111" stroke-width="3"/><g stroke-width="3.5" stroke-linejoin="round"><circle cx="22" cy="50" r="9" fill="#111" stroke="#111"/></g></g><g transform="translate(216,0)"><rect x="1.5" y="1.5" width="97" height="97" fill="#fff" stroke="#111" stroke-width="3"/><g stroke-width="3.5" stroke-linejoin="round"><circle cx="76" cy="76" r="9" fill="#111" stroke="#111"/></g></g><g transform="translate(0,108)"><rect x="1.5" y="1.5" width="97" height="97" fill="#fff" stroke="#111" stroke-width="3"/><g stroke-width="3.5" stroke-linejoin="round"><line x1="50.00" y1="6.00" x2="50.00" y2="94.00" stroke="#111" stroke-linecap="square"/></g></g><g transform="translate(108,108)"><rect x="1.5" y="1.5" width="97" height="97" fill="#fff" stroke="#111" stroke-width="3"/><g stroke-width="3.5" stroke-linejoin="round"><line x1="81.11" y1="18.89" x2="18.89" y2="81.11" stroke="#111" stroke-linecap="square"/></g></g><g transform="translate(216,108)"><rect x="1.5" y="1.5" width="97" height="97" fill="#fff" stroke="#111" stroke-width="3"/><g stroke-width="3.5" stroke-linejoin="round"><line x1="6.00" y1="50.00" x2="94.00" y2="50.00" stroke="#111" stroke-linecap="square"/></g></g><g transform="translate(0,216)"><rect x="1.5" y="1.5" width="97" height="97" fill="#fff" stroke="#111" stroke-width="3"/><g stroke-width="3.5" stroke-linejoin="round"><circle cx="50" cy="22" r="9" fill="#111" stroke="#111"/><line x1="50.00" y1="6.00" x2="50.00" y2="94.00" stroke="#111" stroke-linecap="square"/></g></g><g transform="translate(108,216)"><rect x="1.5" y="1.5" width="97" height="97" fill="#fff" stroke="#111" stroke-width="3"/><g stroke-width="3.5" stroke-linejoin="round"><circle cx="22" cy="50" r="9" fill="#111" stroke="#111"/><line x1="81.11" y1="18.89" x2="18.89" y2="81.11" stroke="#111" stroke-linecap="square"/></g></g><g transform="translate(216,216)"><rect x="1.5" y="1.5" width="97" height="97" fill="#fff" stroke="#111" stroke-width="3"/><g stroke-width="3.5" stroke-linejoin="round"><circle cx="76" cy="76" r="9" fill="#111" stroke="#111"/><line x1="6.00" y1="50.00" x2="94.00" y2="50.00" stroke="#111" stroke-linecap="square"/></g></g><g transform="translate(216,216)"><rect x="1.5" y="1.5" width="97" height="97" fill="none" stroke="#0f6e3c" stroke-width="6"/></g></svg>