<svg xmlns="http://www.w3.org/2000/svg" viewBox="0 0 424 100" width="932.8" height="220" role="img"><rect width="100%" height="100%" fill="#fff"/><g transform="translate(0,0)"><rect x="1.5" y="1.5" width="97" height="97" fill="#fff" stroke="#111" stroke-width="3"/><g stroke-width="3.5" stroke-linejoin="round"><polygon points="50.00,16.00 86.00,52.00 50.00,88.00 14.00,52.00" fill="#111" stroke="#111"/></g></g><g transform="translate(108,0)"><rect x="1.5" y="1.5" width="97" height="97" fill="#fff" stroke="#111" stroke-width="3"/><g stroke-width="3.5" stroke-linejoin="round"><polygon points="50.00,16.00 84.24,40.88 71.16,81.12 28.84,81.12 15.76,40.88" fill="#111" stroke="#111"/></g></g><g transform="translate(216,0)"><rect x="1.5" y="1.5" width="97" height="97" fill="#fff" stroke="#111" stroke-width="3"/><g stroke-width="3.5" stroke-linejoin="round"><polygon points="50.00,16.00 81.18,34.00 81.18,70.00 50.00,88.00 18.82,70.00 18.82,34.00" fill="#111" stroke="#111"/></g></g><g transform="translate(324,0)"><rect x="1.5" y="1.5" width="97" height="97" fill="#fff" stroke="#111" stroke-width="3"/><g stroke-width="3.5" stroke-linejoin="round"><polygon points="50.00,16.00 78.15,29.55 85.10,60.01 65.62,84.43 34.38,84.43 14.90,60.01 21.85,29.55" fill="#111" stroke="#111"/></g></g><g transform="translate(324,0)"><rect x="1.5" y="1.5" width="97" height="97" fill="none" stroke="#0f6e3c" stroke-width="6"/></g></svg>